<svg width="1585" height="774" viewBox="0 0 1585 774" fill="none" xmlns="http://www.w3.org/2000/svg">
<g filter="url(#filter0_d_115_512)">
<path d="M775.71 413.957L899.387 145.899C894.806 133.333 891.142 107.365 913.129 104.014V405.58C894.806 409.768 890.226 443.275 922.29 443.275C945.194 439.087 945.194 409.768 922.29 405.58V104.014C931.452 105.411 947.026 115.742 936.032 145.899L1064.29 413.957C1042.91 420.937 998.329 442.438 991 472.594V518.667H968.097V547.986H986.419V615H853.581V547.986H871.903V518.667H849V472.594C838.312 451.652 808.69 410.606 775.71 413.957Z" fill="url(#paint0_linear_115_512)" shape-rendering="crispEdges"/>
<path d="M601.645 346.942V380.449H565V346.942H583.323C594.011 252.005 672.187 61.2928 899.387 57.942H624.548V66.3188H601.645V45.3768H624.548V57.942H899.387V37H936.032V55.8478H1210.87V45.3768H1233.77V66.3188H1210.87V55.8478H936.032C1035.28 63.5266 1238.35 132.496 1256.68 346.942H1275V380.449H1254.39H1233.77V346.942H1256.68C1238.35 132.496 1035.28 63.5266 936.032 55.8478V74.6957H899.387V57.942C672.187 61.2928 594.011 252.005 583.323 346.942H601.645Z" fill="url(#paint1_linear_115_512)" shape-rendering="crispEdges"/>
<path d="M968.097 518.667H991V472.594C998.329 442.438 1042.91 420.937 1064.29 413.957L936.032 145.899C947.026 115.742 931.452 105.411 922.29 104.014V405.58C945.194 409.768 945.194 439.087 922.29 443.275C890.226 443.275 894.806 409.768 913.129 405.58V104.014C891.142 107.365 894.806 133.333 899.387 145.899L775.71 413.957C808.69 410.606 838.312 451.652 849 472.594V518.667H871.903M968.097 518.667V547.986M968.097 518.667H871.903M968.097 547.986H986.419V615H853.581V547.986H871.903M968.097 547.986H871.903M871.903 547.986V518.667M583.323 346.942H565V380.449H601.645V346.942H583.323ZM583.323 346.942C594.011 252.005 672.187 61.2928 899.387 57.942M899.387 57.942V37H936.032V55.8478M899.387 57.942V74.6957H936.032V55.8478M899.387 57.942H624.548M624.548 57.942V45.3768H601.645V66.3188H624.548V57.942ZM936.032 55.8478H1210.87M936.032 55.8478C1035.28 63.5266 1238.35 132.496 1256.68 346.942M1210.87 55.8478V66.3188H1233.77V45.3768H1210.87V55.8478ZM1256.68 346.942H1233.77V380.449H1254.39H1275V346.942H1256.68Z" stroke="#444444" stroke-width="3.5" shape-rendering="crispEdges"/>
</g>
<g filter="url(#filter1_d_115_512)">
<path d="M543.59 657.6H579.824C587.957 657.6 594.139 659.715 598.368 663.944C602.679 668.173 604.834 674.314 604.834 682.366C604.834 690.499 602.679 696.681 598.368 700.91C594.139 705.139 587.957 707.254 579.824 707.254H552.374V743H543.59V657.6ZM579.092 700.178C584.46 700.178 588.608 698.633 591.536 695.542C594.545 692.37 596.05 687.978 596.05 682.366C596.05 676.835 594.545 672.525 591.536 669.434C588.608 666.262 584.46 664.676 579.092 664.676H552.374V700.178H579.092ZM620.078 657.6H628.862V743H620.078V657.6ZM681.044 700.544L709.714 743H699.588L675.31 707.01L651.032 743H641.028L670.308 699.568L642.126 657.6H652.13L676.042 693.102L699.954 657.6H709.836L681.044 700.544ZM745.027 743C735.511 743 728.435 740.926 723.799 736.778C719.245 732.549 716.967 726.123 716.967 717.502V683.098C716.967 674.477 719.245 668.092 723.799 663.944C728.435 659.715 735.511 657.6 745.027 657.6H774.429V664.676H745.027C738.439 664.676 733.559 666.181 730.387 669.19C727.297 672.199 725.751 676.835 725.751 683.098V696.762H768.207V703.838H725.751V717.502C725.751 723.765 727.297 728.401 730.387 731.41C733.559 734.419 738.439 735.924 745.027 735.924H775.161V743H745.027ZM816.758 743C807.405 743 800.451 740.926 795.896 736.778C791.423 732.549 789.186 726.123 789.186 717.502V657.6H797.97V717.502C797.97 723.765 799.475 728.401 802.484 731.41C805.575 734.419 810.333 735.924 816.758 735.924H844.208V743H816.758ZM945.433 743L938.357 735.192C931.607 741.292 922.701 744.342 911.639 744.342C903.018 744.342 896.186 742.187 891.143 737.876C886.101 733.484 883.579 727.587 883.579 720.186C883.579 714.493 885.165 709.857 888.337 706.278C891.509 702.618 896.227 699.039 902.489 695.542C898.829 691.475 896.105 687.897 894.315 684.806C892.607 681.715 891.753 678.381 891.753 674.802C891.753 669.109 893.624 664.635 897.365 661.382C901.188 658.047 906.312 656.38 912.737 656.38C919 656.38 923.961 658.088 927.621 661.504C931.281 664.839 933.111 669.353 933.111 675.046C933.111 679.682 931.688 683.586 928.841 686.758C925.995 689.849 921.318 693.346 914.811 697.25L937.503 722.138C941.001 716.201 943.4 708.189 944.701 698.104H953.607C951.981 711.443 948.687 721.691 943.725 728.848L956.535 743H945.433ZM912.737 663.456C909.077 663.456 906.109 664.473 903.831 666.506C901.635 668.539 900.537 671.305 900.537 674.802C900.537 677.567 901.188 680.129 902.489 682.488C903.872 684.765 906.231 687.775 909.565 691.516C914.771 688.507 918.512 685.863 920.789 683.586C923.148 681.309 924.327 678.462 924.327 675.046C924.327 671.549 923.27 668.743 921.155 666.628C919.041 664.513 916.235 663.456 912.737 663.456ZM911.639 737.266C920.423 737.266 927.418 734.46 932.623 728.848L907.735 701.398C904.238 703.35 901.473 705.099 899.439 706.644C897.406 708.108 895.698 709.979 894.315 712.256C893.014 714.452 892.363 717.095 892.363 720.186C892.363 725.391 894.071 729.539 897.487 732.63C900.985 735.721 905.702 737.266 911.639 737.266ZM1032.44 744.342C1021.13 744.342 1012.51 741.699 1006.57 736.412C1000.72 731.125 997.787 723.399 997.787 713.232V687.246C997.787 677.242 1000.63 669.597 1006.33 664.31C1012.1 658.942 1020.4 656.258 1031.22 656.258C1038.29 656.258 1044.35 657.397 1049.39 659.674C1054.44 661.87 1058.58 665.327 1061.84 670.044L1055.62 674.558C1052.77 670.735 1049.39 667.929 1045.49 666.14C1041.67 664.269 1037.03 663.334 1031.58 663.334C1023.45 663.334 1017.23 665.367 1012.92 669.434C1008.69 673.501 1006.57 679.438 1006.57 687.246V713.232C1006.57 721.121 1008.73 727.099 1013.04 731.166C1017.43 735.233 1023.85 737.266 1032.31 737.266C1037.93 737.266 1042.68 736.331 1046.59 734.46C1050.49 732.589 1053.87 729.661 1056.71 725.676L1062.94 730.434C1059.28 735.314 1055.05 738.852 1050.25 741.048C1045.45 743.244 1039.51 744.342 1032.44 744.342ZM1108.42 744.342C1097.6 744.342 1089.31 741.699 1083.53 736.412C1077.76 731.044 1074.87 723.317 1074.87 713.232V687.368C1074.87 677.283 1077.76 669.597 1083.53 664.31C1089.31 658.942 1097.6 656.258 1108.42 656.258C1119.24 656.258 1127.53 658.942 1133.31 664.31C1139.08 669.597 1141.97 677.283 1141.97 687.368V713.232C1141.97 723.317 1139.08 731.044 1133.31 736.412C1127.53 741.699 1119.24 744.342 1108.42 744.342ZM1108.42 737.266C1116.39 737.266 1122.49 735.192 1126.72 731.044C1131.03 726.896 1133.19 720.959 1133.19 713.232V687.368C1133.19 679.641 1131.03 673.704 1126.72 669.556C1122.49 665.408 1116.39 663.334 1108.42 663.334C1100.45 663.334 1094.31 665.408 1090 669.556C1085.77 673.704 1083.66 679.641 1083.66 687.368V713.232C1083.66 720.959 1085.77 726.896 1090 731.044C1094.31 735.192 1100.45 737.266 1108.42 737.266ZM1161.45 657.6H1191.83C1200.78 657.6 1207.85 658.983 1213.06 661.748C1218.35 664.513 1222.17 668.987 1224.53 675.168C1226.89 681.349 1228.07 689.727 1228.07 700.3C1228.07 710.955 1226.89 719.373 1224.53 725.554C1222.25 731.654 1218.47 736.087 1213.18 738.852C1207.98 741.617 1200.86 743 1191.83 743H1161.45V657.6ZM1191.83 735.924C1198.58 735.924 1203.95 734.785 1207.94 732.508C1211.92 730.149 1214.81 726.408 1216.6 721.284C1218.39 716.079 1219.28 709.125 1219.28 700.422C1219.28 691.719 1218.35 684.765 1216.48 679.56C1214.69 674.355 1211.8 670.573 1207.81 668.214C1203.83 665.855 1198.5 664.676 1191.83 664.676H1170.24V735.924H1191.83ZM1271.15 743C1261.64 743 1254.56 740.926 1249.92 736.778C1245.37 732.549 1243.09 726.123 1243.09 717.502V683.098C1243.09 674.477 1245.37 668.092 1249.92 663.944C1254.56 659.715 1261.64 657.6 1271.15 657.6H1300.55V664.676H1271.15C1264.56 664.676 1259.68 666.181 1256.51 669.19C1253.42 672.199 1251.88 676.835 1251.88 683.098V696.762H1294.33V703.838H1251.88V717.502C1251.88 723.765 1253.42 728.401 1256.51 731.41C1259.68 734.419 1264.56 735.924 1271.15 735.924H1301.29V743H1271.15Z" fill="#444444"/>
</g>
<path d="M252.372 249.167V134.59L1 310.709V434.292L252.372 609.41V500.336L78.8136 371.75L252.372 249.167Z" fill="#473E3F"/>
<path d="M553.5 1H449.951L274.024 743L372.5 743L464.5 371.75L553.5 1Z" fill="#473E3F"/>
<path d="M1584 305.705L1335.67 128.586V251.669L1514.64 374.251L1335.67 497.334V615.414L1584 440.796V305.705Z" fill="#473E3F"/>
<path d="M252.372 249.167V134.59L1 310.709V434.292L252.372 609.41V500.336L78.8136 371.75L252.372 249.167Z" stroke="#7E7E7E"/>
<path d="M553.5 1H449.951L274.024 743L372.5 743L464.5 371.75L553.5 1Z" stroke="#7E7E7E"/>
<path d="M1584 305.705L1335.67 128.586V251.669L1514.64 374.251L1335.67 497.334V615.414L1584 440.796V305.705Z" stroke="#7E7E7E"/>
<defs>
<filter id="filter0_d_115_512" x="563.25" y="35.25" width="728.5" height="596.5" filterUnits="userSpaceOnUse" color-interpolation-filters="sRGB">
<feFlood flood-opacity="0" result="BackgroundImageFix"/>
<feColorMatrix in="SourceAlpha" type="matrix" values="0 0 0 0 0 0 0 0 0 0 0 0 0 0 0 0 0 0 127 0" result="hardAlpha"/>
<feOffset dx="11" dy="11"/>
<feGaussianBlur stdDeviation="2"/>
<feComposite in2="hardAlpha" operator="out"/>
<feColorMatrix type="matrix" values="0 0 0 0 0 0 0 0 0 0 0 0 0 0 0 0 0 0 0.25 0"/>
<feBlend mode="normal" in2="BackgroundImageFix" result="effect1_dropShadow_115_512"/>
<feBlend mode="normal" in="SourceGraphic" in2="effect1_dropShadow_115_512" result="shape"/>
</filter>
<filter id="filter1_d_115_512" x="543.59" y="656.258" width="770.697" height="96.084" filterUnits="userSpaceOnUse" color-interpolation-filters="sRGB">
<feFlood flood-opacity="0" result="BackgroundImageFix"/>
<feColorMatrix in="SourceAlpha" type="matrix" values="0 0 0 0 0 0 0 0 0 0 0 0 0 0 0 0 0 0 127 0" result="hardAlpha"/>
<feOffset dx="9" dy="4"/>
<feGaussianBlur stdDeviation="2"/>
<feComposite in2="hardAlpha" operator="out"/>
<feColorMatrix type="matrix" values="0 0 0 0 0 0 0 0 0 0 0 0 0 0 0 0 0 0 0.25 0"/>
<feBlend mode="normal" in2="BackgroundImageFix" result="effect1_dropShadow_115_512"/>
<feBlend mode="normal" in="SourceGraphic" in2="effect1_dropShadow_115_512" result="shape"/>
</filter>
<linearGradient id="paint0_linear_115_512" x1="1254.39" y1="37" x2="1254.39" y2="686.203" gradientUnits="userSpaceOnUse">
<stop stop-color="#FF8BD2"/>
<stop offset="1" stop-color="#FFFA8B" stop-opacity="0.56"/>
</linearGradient>
<linearGradient id="paint1_linear_115_512" x1="1254.39" y1="37" x2="1254.39" y2="686.203" gradientUnits="userSpaceOnUse">
<stop stop-color="#FF8BD2"/>
<stop offset="1" stop-color="#FFFA8B" stop-opacity="0.56"/>
</linearGradient>
</defs>
</svg>
